<svg xmlns="http://www.w3.org/2000/svg" xmlns:xlink="http://www.w3.org/1999/xlink" width="189.797" height="154.236" viewBox="0 0 189.797 154.236"><defs><clipPath id="a"><rect width="189.797" height="154.236" fill="none"/></clipPath><filter id="b" x="0" y="0" width="189.797" height="150.411" filterUnits="userSpaceOnUse"><feOffset dy="7" input="SourceAlpha"/><feGaussianBlur stdDeviation="5.5" result="c"/><feFlood flood-opacity="0.161"/><feComposite operator="in" in2="c"/><feComposite in="SourceGraphic"/></filter><filter id="d" x="59.826" y="75.406" width="69.427" height="78.829" filterUnits="userSpaceOnUse"><feOffset dy="5" input="SourceAlpha"/><feGaussianBlur stdDeviation="4" result="e"/><feFlood flood-opacity="0.161"/><feComposite operator="in" in2="e"/><feComposite in="SourceGraphic"/></filter><filter id="f" x="54.912" y="52.632" width="43.302" height="53.269" filterUnits="userSpaceOnUse"><feOffset dy="3" input="SourceAlpha"/><feGaussianBlur stdDeviation="3" result="g"/><feFlood flood-opacity="0.161"/><feComposite operator="in" in2="g"/><feComposite in="SourceGraphic"/></filter><filter id="h" x="92.481" y="52.632" width="43.302" height="53.269" filterUnits="userSpaceOnUse"><feOffset dy="3" input="SourceAlpha"/><feGaussianBlur stdDeviation="3" result="i"/><feFlood flood-opacity="0.161"/><feComposite operator="in" in2="i"/><feComposite in="SourceGraphic"/></filter></defs><g clip-path="url(#a)"><g transform="matrix(1, 0, 0, 1, 0, 0)" filter="url(#b)"><path d="M-1618.529,87.426c6.489-6.489,20.007-29.2,0-71.918s-68.133-40.555-68.133-40.555-40.015-2.7-65.97,40.555-2.349,76.588-2.349,76.588S-1625.018,93.915-1618.529,87.426Z" transform="translate(1781.31 34.58)" fill="#ff8a8a"/></g><g transform="matrix(1, 0, 0, 1, 0, 0)" filter="url(#d)"><path d="M-1270.24,80.183c-2.722,6.47-15.772,32.35,0,34.938s52.761,3.882,31.184-34.938S-1267.518,73.713-1270.24,80.183Z" transform="translate(1349.72 21.01)" fill="#ff5959"/></g><g transform="translate(58.545 51.731)"><ellipse cx="17.635" cy="24.535" rx="17.635" ry="24.535" fill="#fff"/><g transform="matrix(1, 0, 0, 1, -58.54, -51.73)" filter="url(#f)"><ellipse cx="12.651" cy="17.635" rx="12.651" ry="17.635" transform="translate(63.91 58.63)" fill="#2e2e2e"/></g></g><g transform="translate(96.114 51.731)"><ellipse cx="17.635" cy="24.535" rx="17.635" ry="24.535" fill="#fff"/><g transform="matrix(1, 0, 0, 1, -96.11, -51.73)" filter="url(#h)"><ellipse cx="12.651" cy="17.635" rx="12.651" ry="17.635" transform="translate(101.48 58.63)" fill="#2e2e2e"/></g></g></g></svg>