<svg xmlns="http://www.w3.org/2000/svg" xmlns:xlink="http://www.w3.org/1999/xlink" width="318.597" height="292.951" viewBox="0 0 318.597 292.951">
  <defs>
    <clipPath id="clip-path">
      <rect width="318.597" height="292.951" fill="none"/>
    </clipPath>
    <filter id="badan" x="0" y="0" width="318.597" height="292.951" filterUnits="userSpaceOnUse">
      <feOffset dy="7" input="SourceAlpha"/>
      <feGaussianBlur stdDeviation="5.5" result="blur"/>
      <feFlood flood-opacity="0.161"/>
      <feComposite operator="in" in2="blur"/>
      <feComposite in="SourceGraphic"/>
    </filter>
    <filter id="idung" x="134.328" y="74.406" width="74.374" height="120.553" filterUnits="userSpaceOnUse">
      <feOffset dy="5" input="SourceAlpha"/>
      <feGaussianBlur stdDeviation="4" result="blur-2"/>
      <feFlood flood-opacity="0.161"/>
      <feComposite operator="in" in2="blur-2"/>
      <feComposite in="SourceGraphic"/>
    </filter>
    <filter id="Ellipse_2" x="130.413" y="52.632" width="43.302" height="53.269" filterUnits="userSpaceOnUse">
      <feOffset dy="3" input="SourceAlpha"/>
      <feGaussianBlur stdDeviation="3" result="blur-3"/>
      <feFlood flood-opacity="0.161"/>
      <feComposite operator="in" in2="blur-3"/>
      <feComposite in="SourceGraphic"/>
    </filter>
    <filter id="Ellipse_2-2" x="167.982" y="52.632" width="43.302" height="53.269" filterUnits="userSpaceOnUse">
      <feOffset dy="3" input="SourceAlpha"/>
      <feGaussianBlur stdDeviation="3" result="blur-4"/>
      <feFlood flood-opacity="0.161"/>
      <feComposite operator="in" in2="blur-4"/>
      <feComposite in="SourceGraphic"/>
    </filter>
  </defs>
  <g id="Octopus-1-300px" clip-path="url(#clip-path)">
    <g transform="matrix(1, 0, 0, 1, 0, 0)" filter="url(#badan)">
      <path id="badan-2" data-name="badan" d="M-1618.529,87.426c6.489-6.489,20.007-29.2,0-71.918s-68.133-40.555-68.133-40.555-40.015-2.7-65.97,40.555-4.326,71.918-4.326,71.918-34.067,10.274-54.615,8.652-27.577,10.815-28.659,16.763,8.652,28.659,41.637,21.63,37.852-17.3,41.637-21.63,23.793-20.548,32.444,0,2.163,27.037-8.652,34.066-43.8,27.578-35.689,54.074,24.874,44.341,63.807,27.037,18.385-79.488,26.5-93.548,26.5-4.867,34.607,15.681,16.763,37.852,37.311,41.637,50.289,9.193,43.8-34.607-38.392-29.2-43.8-35.689,0-18.385,13.518-14.6,38.933-2.163,38.393-19.467-22.17-13.518-38.393,0S-1625.018,93.915-1618.529,87.426Z" transform="translate(1856.81 34.58)" fill="#ff8a8a"/>
    </g>
    <g transform="matrix(1, 0, 0, 1, 0, 0)" filter="url(#idung)">
      <path id="idung-2" data-name="idung" d="M-1269.406,94.476c-3.018,11.393-17.49,56.967,0,61.525s58.506,6.836,34.58-61.525S-1266.388,83.083-1269.406,94.476Z" transform="translate(1424.22 20.01)" fill="#ff5959"/>
    </g>
    <g id="mata" transform="translate(134.046 51.731)">
      <ellipse id="Ellipse_1" data-name="Ellipse 1" cx="17.635" cy="24.535" rx="17.635" ry="24.535" fill="#fff"/>
      <g transform="matrix(1, 0, 0, 1, -134.05, -51.73)" filter="url(#Ellipse_2)">
        <ellipse id="Ellipse_2-3" data-name="Ellipse 2" cx="12.651" cy="17.635" rx="12.651" ry="17.635" transform="translate(139.41 58.63)" fill="#2e2e2e"/>
      </g>
    </g>
    <g id="mata-2" data-name="mata" transform="translate(171.615 51.731)">
      <ellipse id="Ellipse_1-2" data-name="Ellipse 1" cx="17.635" cy="24.535" rx="17.635" ry="24.535" fill="#fff"/>
      <g transform="matrix(1, 0, 0, 1, -171.62, -51.73)" filter="url(#Ellipse_2-2)">
        <ellipse id="Ellipse_2-4" data-name="Ellipse 2" cx="12.651" cy="17.635" rx="12.651" ry="17.635" transform="translate(176.98 58.63)" fill="#2e2e2e"/>
      </g>
    </g>
  </g>
</svg>
