<svg xmlns="http://www.w3.org/2000/svg" xmlns:xlink="http://www.w3.org/1999/xlink" width="365" height="331.784" viewBox="0 0 365 331.784">
  <defs>
    <clipPath id="clip-path">
      <rect width="365" height="331.784" fill="none"/>
    </clipPath>
    <filter id="bayangan" x="0" y="221.689" width="365" height="110.096" filterUnits="userSpaceOnUse">
      <feOffset dy="1" input="SourceAlpha"/>
      <feGaussianBlur stdDeviation="2.5" result="blur"/>
      <feFlood flood-opacity="0.161"/>
      <feComposite operator="in" in2="blur"/>
      <feComposite in="SourceGraphic"/>
    </filter>
    <filter id="badan" x="79.198" y="116.169" width="184.949" height="167.763" filterUnits="userSpaceOnUse">
      <feOffset dy="1" input="SourceAlpha"/>
      <feGaussianBlur stdDeviation="2.5" result="blur-2"/>
      <feFlood flood-opacity="0.161"/>
      <feComposite operator="in" in2="blur-2"/>
      <feComposite in="SourceGraphic"/>
    </filter>
    <filter id="idung" x="149.867" y="154.423" width="57.755" height="88.7" filterUnits="userSpaceOnUse">
      <feOffset dy="5" input="SourceAlpha"/>
      <feGaussianBlur stdDeviation="4" result="blur-3"/>
      <feFlood flood-opacity="0.161"/>
      <feComposite operator="in" in2="blur-3"/>
      <feComposite in="SourceGraphic"/>
    </filter>
    <filter id="Ellipse_2" x="149.999" y="145.3" width="34.955" height="41.634" filterUnits="userSpaceOnUse">
      <feOffset dy="3" input="SourceAlpha"/>
      <feGaussianBlur stdDeviation="3" result="blur-4"/>
      <feFlood flood-opacity="0.161"/>
      <feComposite operator="in" in2="blur-4"/>
      <feComposite in="SourceGraphic"/>
    </filter>
    <filter id="Ellipse_2-2" x="171.958" y="145.3" width="34.955" height="41.634" filterUnits="userSpaceOnUse">
      <feOffset dy="3" input="SourceAlpha"/>
      <feGaussianBlur stdDeviation="3" result="blur-5"/>
      <feFlood flood-opacity="0.161"/>
      <feComposite operator="in" in2="blur-5"/>
      <feComposite in="SourceGraphic"/>
    </filter>
    <filter id="Path_1" x="160.644" y="0" width="111.675" height="234.098" filterUnits="userSpaceOnUse">
      <feOffset dy="1" input="SourceAlpha"/>
      <feGaussianBlur stdDeviation="1" result="blur-6"/>
      <feFlood flood-opacity="0.161"/>
      <feComposite operator="in" in2="blur-6"/>
      <feComposite in="SourceGraphic"/>
    </filter>
    <filter id="Path_2" x="183.456" y="241.395" width="32.025" height="47.306" filterUnits="userSpaceOnUse">
      <feOffset dy="1" input="SourceAlpha"/>
      <feGaussianBlur stdDeviation="1" result="blur-7"/>
      <feFlood flood-opacity="0.161"/>
      <feComposite operator="in" in2="blur-7"/>
      <feComposite in="SourceGraphic"/>
    </filter>
    <filter id="Path_1-2" x="93.165" y="77.513" width="43.209" height="64.246" filterUnits="userSpaceOnUse">
      <feOffset dy="1" input="SourceAlpha"/>
      <feGaussianBlur stdDeviation="1" result="blur-8"/>
      <feFlood flood-opacity="0.161"/>
      <feComposite operator="in" in2="blur-8"/>
      <feComposite in="SourceGraphic"/>
    </filter>
    <filter id="Path_2-2" x="120.117" y="134.175" width="13.988" height="16.739" filterUnits="userSpaceOnUse">
      <feOffset dy="1" input="SourceAlpha"/>
      <feGaussianBlur stdDeviation="1" result="blur-9"/>
      <feFlood flood-opacity="0.161"/>
      <feComposite operator="in" in2="blur-9"/>
      <feComposite in="SourceGraphic"/>
    </filter>
    <filter id="Path_1-3" x="131.437" y="98.266" width="31.364" height="31.364" filterUnits="userSpaceOnUse">
      <feOffset dy="1" input="SourceAlpha"/>
      <feGaussianBlur stdDeviation="1" result="blur-10"/>
      <feFlood flood-opacity="0.161"/>
      <feComposite operator="in" in2="blur-10"/>
      <feComposite in="SourceGraphic"/>
    </filter>
    <filter id="Path_2-3" x="148.155" y="114.378" width="23.008" height="23.049" filterUnits="userSpaceOnUse">
      <feOffset dy="3" input="SourceAlpha"/>
      <feGaussianBlur stdDeviation="3" result="blur-11"/>
      <feFlood flood-opacity="0.161"/>
      <feComposite operator="in" in2="blur-11"/>
      <feComposite in="SourceGraphic"/>
    </filter>
    <filter id="Path_1-4" x="128.319" y="120.885" width="16.202" height="19.346" filterUnits="userSpaceOnUse">
      <feOffset dy="1" input="SourceAlpha"/>
      <feGaussianBlur stdDeviation="1" result="blur-12"/>
      <feFlood flood-opacity="0.161"/>
      <feComposite operator="in" in2="blur-12"/>
      <feComposite in="SourceGraphic"/>
    </filter>
    <filter id="Path_2-4" x="136.504" y="133.033" width="8.11" height="8.529" filterUnits="userSpaceOnUse">
      <feOffset dy="1" input="SourceAlpha"/>
      <feGaussianBlur stdDeviation="1" result="blur-13"/>
      <feFlood flood-opacity="0.161"/>
      <feComposite operator="in" in2="blur-13"/>
      <feComposite in="SourceGraphic"/>
    </filter>
    <filter id="Path_1-5" x="200.638" y="67.805" width="32.862" height="49.659" filterUnits="userSpaceOnUse">
      <feOffset dy="1" input="SourceAlpha"/>
      <feGaussianBlur stdDeviation="1" result="blur-14"/>
      <feFlood flood-opacity="0.161"/>
      <feComposite operator="in" in2="blur-14"/>
      <feComposite in="SourceGraphic"/>
    </filter>
    <filter id="Path_2-5" x="202.715" y="110.789" width="11.816" height="14.007" filterUnits="userSpaceOnUse">
      <feOffset dy="1" input="SourceAlpha"/>
      <feGaussianBlur stdDeviation="1" result="blur-15"/>
      <feFlood flood-opacity="0.161"/>
      <feComposite operator="in" in2="blur-15"/>
      <feComposite in="SourceGraphic"/>
    </filter>
    <filter id="Path_1-6" x="172.922" y="91.76" width="26.204" height="30.608" filterUnits="userSpaceOnUse">
      <feOffset dy="1" input="SourceAlpha"/>
      <feGaussianBlur stdDeviation="1" result="blur-16"/>
      <feFlood flood-opacity="0.161"/>
      <feComposite operator="in" in2="blur-16"/>
      <feComposite in="SourceGraphic"/>
    </filter>
    <filter id="Path_2-6" x="186.747" y="115.134" width="10.202" height="10.725" filterUnits="userSpaceOnUse">
      <feOffset dy="1" input="SourceAlpha"/>
      <feGaussianBlur stdDeviation="1" result="blur-17"/>
      <feFlood flood-opacity="0.161"/>
      <feComposite operator="in" in2="blur-17"/>
      <feComposite in="SourceGraphic"/>
    </filter>
  </defs>
  <g id="what-is-octopus-waterfall" clip-path="url(#clip-path)">
    <g transform="matrix(1, 0, 0, 1, 0, 0)" filter="url(#bayangan)">
      <path id="bayangan-2" data-name="bayangan" d="M-1681.237,809c2.468-3.291,6.171-17.279,47.311-14.81s120.539-16.456,126.3,7.405-6.582,25.1-6.582,25.1-11.519,4.114,30.444,0,67.88,8.639,58.418,20.57-69.937,27.975-101.2,29.621-217.629,17.69-239.433-2.468,8.64-56.362,37.437-55.539S-1683.706,812.292-1681.237,809Z" transform="translate(1780.9 -561.2)" fill="#ffc685"/>
    </g>
    <g id="Octopus-1" transform="translate(86.698 122.669)">
      <g transform="matrix(1, 0, 0, 1, -86.7, -122.67)" filter="url(#badan)">
        <path id="badan-2" data-name="badan" d="M-1708.336,41.036c3.861-3.813,11.906-17.16,0-42.264s-40.544-23.833-40.544-23.833-23.811-1.589-39.256,23.833-2.574,42.264-2.574,42.264-20.272,6.038-32.5,5.084-16.41,6.355-17.054,9.851,5.148,16.842,24.776,12.711,22.524-10.169,24.777-12.711,14.158-12.075,19.306,0,1.287,15.889-5.148,20.02-26.064,16.206-21.237,31.777,14.8,26.057,37.969,15.889,10.94-46.712,15.767-54.974,15.767-2.86,20.594,9.215,9.975,22.244,22.2,24.468,29.925,5.4,26.064-20.337-22.846-17.16-26.064-20.973,0-10.8,8.044-8.58,23.167-1.271,22.846-11.44-13.193-7.944-22.846,0S-1712.2,44.849-1708.336,41.036Z" transform="translate(1927.01 147.75)" fill="#ff8a8a"/>
      </g>
      <g transform="matrix(1, 0, 0, 1, -86.7, -122.67)" filter="url(#idung)">
        <path id="idung-2" data-name="idung" d="M-1272.207,83.564c-2.023,7.635-11.72,38.174,0,41.227s39.2,4.581,23.172-41.227S-1270.184,75.93-1272.207,83.564Z" transform="translate(1439.76 100.02)" fill="#ff5959"/>
      </g>
      <g id="mata" transform="translate(68.705 24.008)">
        <ellipse id="Ellipse_1" data-name="Ellipse 1" cx="11.817" cy="16.441" rx="11.817" ry="16.441" fill="#fff"/>
        <g transform="matrix(1, 0, 0, 1, -155.4, -146.68)" filter="url(#Ellipse_2)">
          <ellipse id="Ellipse_2-3" data-name="Ellipse 2" cx="8.477" cy="11.817" rx="8.477" ry="11.817" transform="translate(159 151.3)" fill="#2e2e2e"/>
        </g>
      </g>
      <g id="mata-2" data-name="mata" transform="translate(90.664 24.008)">
        <ellipse id="Ellipse_1-2" data-name="Ellipse 1" cx="11.817" cy="16.441" rx="11.817" ry="16.441" fill="#fff"/>
        <g transform="matrix(1, 0, 0, 1, -177.36, -146.68)" filter="url(#Ellipse_2-2)">
          <ellipse id="Ellipse_2-4" data-name="Ellipse 2" cx="8.477" cy="11.817" rx="8.477" ry="11.817" transform="translate(180.96 151.3)" fill="#2e2e2e"/>
        </g>
      </g>
    </g>
    <g id="tanda-tanya-besar" transform="translate(163.644 2)">
      <g transform="matrix(1, 0, 0, 1, -163.64, -2)" filter="url(#Path_1)">
        <path id="Path_1-7" data-name="Path 1" d="M-1526.346,687.786s-27.866-84.276,22.8-98.631,92.044,31.244,68.4,106.4-68.4,119.066-68.4,119.066,46.444-77.181,47.288-126.834c.644-37.885-5.067-62.32-26.178-64.009a49.783,49.783,0,0,0-9.564.527c-7.326,1.593-6.461.857-11.626,4.3C-1531.492,647.181-1526.346,687.786-1526.346,687.786Z" transform="translate(1697.64 -584.52)" fill="#a264ff"/>
      </g>
      <g transform="matrix(1, 0, 0, 1, -163.64, -2)" filter="url(#Path_2)">
        <path id="Path_2-7" data-name="Path 2" d="M12.118,1.187c-8.642,4.776-22.288,21.606,0,23.653s31.158-2.729,28.2-10.235S20.76-3.589,12.118,1.187Z" transform="translate(211.77 243.4) rotate(89)" fill="#a264ff"/>
      </g>
    </g>
    <g id="tanda-tanya" transform="translate(136.491 144.227) rotate(166)">
      <g transform="matrix(-0.97, -0.24, 0.24, -0.97, 97.54, 172.96)" filter="url(#Path_1-2)">
        <path id="Path_1-8" data-name="Path 1" d="M1.8,29.923S-4.77,49.8,7.183,53.192,28.9,45.821,23.32,28.09A73.16,73.16,0,0,0,7.183,0S18.14,18.208,18.339,29.923c.152,8.938-1.2,14.7-6.176,15.1A11.75,11.75,0,0,1,9.907,44.9c-1.728-.376-1.524-.2-2.743-1.014C.59,39.5,1.8,29.923,1.8,29.923Z" transform="translate(133.37 131.73) rotate(166)" fill="#64ff92"/>
      </g>
      <g transform="matrix(-0.97, -0.24, 0.24, -0.97, 97.54, 172.96)" filter="url(#Path_2-2)">
        <path id="Path_2-8" data-name="Path 2" d="M2.859,5.692C.82,4.566-2.4.6,2.859.112S10.21.756,9.512,2.527,4.9,6.819,2.859,5.692Z" transform="translate(128.94 136.17) rotate(77)" fill="#64ff92"/>
      </g>
    </g>
    <g id="tanda-tanya-2" data-name="tanda-tanya" transform="translate(163.951 121.749) rotate(135)">
      <g transform="matrix(-0.71, -0.71, 0.71, -0.71, 29.84, 202.02)" filter="url(#Path_1-3)">
        <path id="Path_1-9" data-name="Path 1" d="M.822,13.631s-2.995,9.057,2.45,10.6,9.892-3.358,7.351-11.435A33.326,33.326,0,0,0,3.272,0S8.263,8.294,8.354,13.631c.069,4.072-.545,6.7-2.813,6.879a5.352,5.352,0,0,1-1.028-.057,2.25,2.25,0,0,1-1.249-.462C.269,17.994.822,13.631.822,13.631Z" transform="translate(159.8 117.6) rotate(135)" fill="#ffcb64"/>
      </g>
      <g transform="matrix(-0.71, -0.71, 0.71, -0.71, 29.84, 202.02)" filter="url(#Path_2-3)">
        <path id="Path_2-9" data-name="Path 2" d="M1.3,2.593C.374,2.08-1.093.271,1.3.051s3.349.293,3.031,1.1S2.231,3.106,1.3,2.593Z" transform="translate(159.11 120.38) rotate(46)" fill="#ffcb64"/>
      </g>
    </g>
    <g id="tanda-tanya-3" data-name="tanda-tanya" transform="translate(142.746 136.487) rotate(155)">
      <g transform="matrix(-0.91, -0.42, 0.42, -0.91, 71.69, 184.03)" filter="url(#Path_1-4)">
        <path id="Path_1-10" data-name="Path 1" d="M.406,6.734s-1.479,4.474,1.21,5.236S6.5,10.311,5.248,6.321A16.463,16.463,0,0,0,1.616,0S4.082,4.1,4.127,6.734c.034,2.011-.269,3.309-1.39,3.4a2.644,2.644,0,0,1-.508-.028,1.111,1.111,0,0,1-.617-.228C.133,8.889.406,6.734.406,6.734Z" transform="translate(141.52 133.86) rotate(155)" fill="#a264ff"/>
      </g>
      <g transform="matrix(-0.91, -0.42, 0.42, -0.91, 71.69, 184.03)" filter="url(#Path_2-4)">
        <path id="Path_2-10" data-name="Path 2" d="M.643,1.281C.185,1.027-.54.134.643.025S2.3.17,2.141.569,1.1,1.535.643,1.281Z" transform="translate(140.73 135.03) rotate(66)" fill="#a264ff"/>
      </g>
    </g>
    <g id="tanda-tanya-4" data-name="tanda-tanya" transform="matrix(0.978, 0.208, -0.208, 0.978, 212.086, 69.805)">
      <g transform="matrix(0.98, -0.21, 0.21, 0.98, -221.97, -24.18)" filter="url(#Path_1-5)">
        <path id="Path_1-11" data-name="Path 1" d="M1.362,18.039S-3.6,3.026,5.424.469s16.4,5.566,12.185,18.954A55.242,55.242,0,0,1,5.424,40.633S13.7,26.884,13.848,18.039c.115-6.749-.9-11.1-4.663-11.4a8.872,8.872,0,0,0-1.7.094A3.73,3.73,0,0,0,5.41,7.5C.445,10.806,1.362,18.039,1.362,18.039Z" transform="matrix(0.98, 0.21, -0.21, 0.98, 212.09, 69.81)" fill="#ff6464"/>
      </g>
      <g transform="matrix(0.98, -0.21, 0.21, 0.98, -221.97, -24.18)" filter="url(#Path_2-5)">
        <path id="Path_2-11" data-name="Path 2" d="M2.159.211c-1.54.851-3.97,3.849,0,4.214S7.709,3.939,7.182,2.6,3.7-.639,2.159.211Z" transform="translate(211.53 113.65) rotate(101)" fill="#ff6464"/>
      </g>
    </g>
    <g id="tanda-tanya-5" data-name="tanda-tanya" transform="translate(175.922 98.953) rotate(-30)">
      <g transform="matrix(0.87, 0.5, -0.5, 0.87, -102.88, -173.66)" filter="url(#Path_1-6)">
        <path id="Path_1-12" data-name="Path 1" d="M.751,9.952S-1.987,1.67,2.992.259,12.039,3.33,9.715,10.716a30.478,30.478,0,0,1-6.722,11.7S7.557,14.833,7.64,9.952c.063-3.723-.5-6.125-2.573-6.291a4.895,4.895,0,0,0-.94.052,2.058,2.058,0,0,0-1.143.423C.246,5.962.751,9.952.751,9.952Z" transform="translate(175.92 98.95) rotate(-30)" fill="#a264ff"/>
      </g>
      <g transform="matrix(0.87, 0.5, -0.5, 0.87, -102.88, -173.66)" filter="url(#Path_2-6)">
        <path id="Path_2-12" data-name="Path 2" d="M1.191.117C.342.586-1,2.24,1.191,2.441s3.062-.268,2.772-1.006S2.04-.353,1.191.117Z" transform="translate(191.88 117.13) rotate(59)" fill="#a264ff"/>
      </g>
    </g>
  </g>
</svg>
